<svg width="82" height="82" viewBox="0 0 82 82" fill="none" xmlns="http://www.w3.org/2000/svg">
<circle opacity="0.5" cx="41" cy="41" r="41" fill="#7D6C8D"/>
<path d="M40.5 17.5C53.1489 17.5 63.5 27.8511 63.5 40.5C63.5 53.1489 53.1489 63.5 40.5 63.5C27.8511 63.5 17.5 53.1489 17.5 40.5C17.5 27.8511 27.8511 17.5 40.5 17.5ZM40.5 21.2002C29.8369 21.2002 21.2002 29.8369 21.2002 40.5C21.2002 51.1631 29.8369 59.7998 40.5 59.7998C51.1631 59.7998 59.7998 51.1631 59.7998 40.5C59.7998 29.8369 51.1631 21.2002 40.5 21.2002ZM42.3262 36.7217C42.6649 36.6942 42.8222 36.7744 42.9033 36.8457C42.995 36.9263 43.0746 37.0706 43.1182 37.3154C43.2087 37.8246 43.1012 38.4871 43.0146 39.0312L42.9941 39.1494C42.6663 40.3902 42.2711 41.8825 41.875 43.3037L41.874 43.3057C41.4282 44.9363 40.9856 46.5615 40.6807 47.8525C40.5284 48.4972 40.4076 49.0691 40.3389 49.5225C40.3046 49.7485 40.2816 49.9551 40.2754 50.1318C40.27 50.2838 40.2756 50.4663 40.3271 50.6279L40.3262 50.6289C40.3272 50.6323 40.3291 50.6353 40.3301 50.6387C40.3321 50.6446 40.3328 50.6513 40.335 50.6572L40.3359 50.6562C40.3919 50.8292 40.4915 50.9915 40.6514 51.1094C40.8169 51.2312 41.0027 51.2744 41.168 51.2803C41.4765 51.2912 41.8031 51.1748 42.0801 51.0479C42.651 50.7863 43.3195 50.329 43.832 49.9873C43.9056 49.9383 43.974 49.8873 44.0293 49.8477C44.0315 49.8503 44.0339 49.8528 44.0361 49.8555C44.0423 49.8651 44.0486 49.8745 44.0547 49.8838C43.4288 50.3135 41.366 51.7592 40.5146 52.2969L40.5068 52.3027C40.2793 52.4526 39.8886 52.691 39.4434 52.9014C38.9909 53.1151 38.5178 53.2825 38.1162 53.3213C37.718 53.3597 37.4902 53.2674 37.3564 53.0918C37.2174 52.9091 37.0895 52.5259 37.1504 51.7715L37.1885 51.4248C37.6771 48.5677 38.3279 46.1032 38.8438 44.1572C39.0837 43.2792 39.2942 42.506 39.4385 41.8691C39.5795 41.2468 39.6718 40.6959 39.6445 40.2822C39.6309 40.0752 39.5846 39.8362 39.4404 39.6377C39.2761 39.4115 39.0331 39.3023 38.7744 39.292C38.5429 39.2828 38.3061 39.352 38.084 39.4463C37.8587 39.5419 37.6073 39.6813 37.3301 39.8584C36.6072 40.2882 36.1206 40.5929 35.793 40.8105L35.7471 40.7373C35.7781 40.7131 35.8161 40.6839 35.8594 40.6504C36.0007 40.5409 36.2051 40.3841 36.4561 40.1953C36.9593 39.8167 37.6491 39.3108 38.3945 38.8008C39.1414 38.2897 39.9374 37.7792 40.6553 37.3887C41.3923 36.9878 41.9749 36.7534 42.3252 36.7207L42.3262 36.7217ZM44.2842 49.666V49.667L44.2832 49.668H44.2812L44.2842 49.666ZM42.8496 29.25C43.3233 29.25 43.7451 29.4353 44.167 29.79C44.5273 30.1971 44.7001 30.6364 44.7002 31.0996C44.7002 31.5851 44.5275 32.0035 44.1631 32.4131C43.7535 32.7775 43.3351 32.9502 42.8496 32.9502C42.3823 32.9501 41.9452 32.7746 41.5645 32.4189C41.1872 31.9975 41 31.5757 41 31.0996C41.0001 30.6458 41.1875 30.2027 41.5605 29.7842C41.9533 29.438 42.3949 29.2501 42.8496 29.25Z" fill="black" stroke="#353535"/>
</svg>
