<svg width="82" height="82" viewBox="0 0 82 82" fill="none" xmlns="http://www.w3.org/2000/svg">
<circle opacity="0.5" cx="41" cy="41" r="41" fill="#7D6C8D"/>
<path d="M48.9791 32.0208H48.9945M32.7916 25.0833H48.2083C52.4654 25.0833 55.9166 28.5344 55.9166 32.7916V48.2083C55.9166 52.4654 52.4654 55.9166 48.2083 55.9166H32.7916C28.5344 55.9166 25.0833 52.4654 25.0833 48.2083V32.7916C25.0833 28.5344 28.5344 25.0833 32.7916 25.0833ZM46.6666 39.5287C46.8568 40.8117 46.6377 42.1221 46.0403 43.2734C45.4429 44.4247 44.4977 45.3583 43.3391 45.9415C42.1805 46.5247 40.8675 46.7276 39.5869 46.5216C38.3063 46.3155 37.1233 45.7109 36.2061 44.7937C35.289 43.8765 34.6843 42.6935 34.4783 41.4129C34.2722 40.1323 34.4752 38.8193 35.0583 37.6607C35.6415 36.5022 36.5751 35.5569 37.7264 34.9595C38.8778 34.3621 40.1881 34.143 41.4712 34.3333C42.7799 34.5273 43.9916 35.1372 44.9271 36.0727C45.8627 37.0083 46.4725 38.2199 46.6666 39.5287Z" stroke="#1E1E1E" stroke-width="4" stroke-linecap="round" stroke-linejoin="round"/>
</svg>
